<svg width="24" height="24" viewBox="0 0 24 24" fill="none" xmlns="http://www.w3.org/2000/svg">
<path d="M19 12V19C19 19.5304 18.7893 20.0391 18.4142 20.4142C18.0391 20.7893 17.5304 21 17 21H7C6.46957 21 5.96086 20.7893 5.58579 20.4142C5.21071 20.0391 5 19.5304 5 19V12M7.5 7.99995C6.83696 7.99995 6.20107 7.73656 5.73223 7.26772C5.26339 6.79887 5 6.16299 5 5.49995C5 4.83691 5.26339 4.20102 5.73223 3.73218C6.20107 3.26334 6.83696 2.99995 7.5 2.99995C8.46469 2.98314 9.41003 3.45121 10.2127 4.34311C11.0154 5.23501 11.6383 6.5094 12 8C12.3617 6.5094 12.9846 5.23501 13.7873 4.34311C14.59 3.45121 15.5353 2.98314 16.5 2.99995C17.163 2.99995 17.7989 3.26334 18.2678 3.73218C18.7366 4.20102 19 4.83691 19 5.49995C19 6.16299 18.7366 6.79887 18.2678 7.26772C17.7989 7.73656 17.163 7.99995 16.5 7.99995M4 8H20C20.5523 8 21 8.44772 21 9V11C21 11.5523 20.5523 12 20 12H4C3.44772 12 3 11.5523 3 11V9C3 8.44772 3.44772 8 4 8Z" stroke="#222222" stroke-width="2" stroke-linecap="round" stroke-linejoin="round"/>
<path d="M8.37815 17.9679C8.11529 17.9679 7.88095 17.9189 7.67513 17.8208C7.47054 17.7228 7.30812 17.5876 7.18785 17.4154C7.06757 17.2431 7.00496 17.0457 7 16.8232H7.78114C7.78982 16.9728 7.85181 17.0941 7.96713 17.1872C8.08244 17.2802 8.21945 17.3267 8.37815 17.3267C8.50462 17.3267 8.61621 17.2984 8.71293 17.2419C8.81088 17.184 8.88713 17.1042 8.94169 17.0024C8.99749 16.8993 9.02538 16.7811 9.02538 16.6478C9.02538 16.512 8.99687 16.3926 8.93983 16.2895C8.88403 16.1864 8.80654 16.1059 8.70735 16.0481C8.60816 15.9903 8.4947 15.9607 8.36699 15.9595C8.2554 15.9595 8.14691 15.9827 8.04152 16.0292C7.93737 16.0758 7.85615 16.1392 7.79788 16.2197L7.08183 16.0896L7.26224 14.0528H9.59078V14.7204H7.92621L7.82764 15.6879H7.84995C7.91691 15.5923 8.01796 15.5131 8.15311 15.4503C8.28826 15.3874 8.43953 15.356 8.60692 15.356C8.8363 15.356 9.04088 15.4107 9.22067 15.52C9.40045 15.6294 9.54242 15.7797 9.64658 15.9708C9.75073 16.1606 9.80218 16.3794 9.80094 16.6271C9.80218 16.8873 9.74267 17.1187 9.6224 17.3211C9.50337 17.5222 9.3366 17.6807 9.1221 17.7963C8.90883 17.9107 8.66085 17.9679 8.37815 17.9679Z" fill="#222222"/>
<path d="M11.8561 18C11.5362 17.9987 11.2609 17.9189 11.0303 17.7605C10.8009 17.6021 10.6242 17.3726 10.5002 17.0721C10.3775 16.7716 10.3167 16.4102 10.318 15.9877C10.318 15.5666 10.3794 15.2076 10.5021 14.9109C10.6261 14.6142 10.8028 14.3885 11.0322 14.2339C11.2628 14.078 11.5374 14 11.8561 14C12.1747 14 12.4488 14.078 12.6781 14.2339C12.9088 14.3898 13.0861 14.6161 13.2101 14.9128C13.3341 15.2082 13.3954 15.5666 13.3942 15.9877C13.3942 16.4114 13.3322 16.7735 13.2082 17.074C13.0854 17.3745 12.9094 17.604 12.68 17.7624C12.4506 17.9208 12.176 18 11.8561 18ZM11.8561 17.323C12.0743 17.323 12.2485 17.2117 12.3787 16.9892C12.5089 16.7666 12.5734 16.4328 12.5721 15.9877C12.5721 15.6948 12.5424 15.4509 12.4829 15.256C12.4246 15.0611 12.3415 14.9147 12.2336 14.8166C12.127 14.7185 12.0012 14.6695 11.8561 14.6695C11.6391 14.6695 11.4655 14.7795 11.3353 14.9995C11.2051 15.2196 11.1394 15.549 11.1382 15.9877C11.1382 16.2845 11.1673 16.5321 11.2256 16.7308C11.2851 16.9282 11.3688 17.0765 11.4767 17.1759C11.5845 17.2739 11.711 17.323 11.8561 17.323Z" fill="#222222"/>
<path d="M15.4619 18C15.142 17.9987 14.8667 17.9189 14.6361 17.7605C14.4067 17.6021 14.23 17.3726 14.106 17.0721C13.9833 16.7716 13.9225 16.4102 13.9238 15.9877C13.9238 15.5666 13.9852 15.2076 14.1079 14.9109C14.2319 14.6142 14.4086 14.3885 14.638 14.2339C14.8686 14.078 15.1432 14 15.4619 14C15.7805 14 16.0546 14.078 16.2839 14.2339C16.5146 14.3898 16.6919 14.6161 16.8159 14.9128C16.9398 15.2082 17.0012 15.5666 17 15.9877C17 16.4114 16.938 16.7735 16.814 17.074C16.6912 17.3745 16.5152 17.604 16.2858 17.7624C16.0564 17.9208 15.7818 18 15.4619 18ZM15.4619 17.323C15.6801 17.323 15.8543 17.2117 15.9845 16.9892C16.1147 16.7666 16.1792 16.4328 16.1779 15.9877C16.1779 15.6948 16.1482 15.4509 16.0887 15.256C16.0304 15.0611 15.9473 14.9147 15.8394 14.8166C15.7328 14.7185 15.6069 14.6695 15.4619 14.6695C15.2449 14.6695 15.0713 14.7795 14.9411 14.9995C14.8109 15.2196 14.7452 15.549 14.744 15.9877C14.744 16.2845 14.7731 16.5321 14.8314 16.7308C14.8909 16.9282 14.9746 17.0765 15.0825 17.1759C15.1903 17.2739 15.3168 17.323 15.4619 17.323Z" fill="#222222"/>
</svg>
